<svg width="90" height="24" viewBox="0 0 90 24" fill="none" xmlns="http://www.w3.org/2000/svg">
<path d="M13.7595 12.3255C13.7595 15.4968 13.7595 18.6684 13.7595 21.8397C13.7595 22.0921 13.7554 22.095 13.5001 22.0517C11.8965 21.7789 10.2929 21.5056 8.68933 21.2339C6.4183 20.8493 4.14672 20.4663 1.87542 20.0824C1.29756 19.9847 0.720245 19.8852 0.141838 19.791C0.0156695 19.7703 -0.0110935 19.7037 0.00365343 19.5934C0.134737 18.617 0.264456 17.6403 0.393901 16.6633C0.564856 15.3726 0.734446 14.0819 0.906221 12.7915C1.07499 11.5233 1.24595 10.2551 1.41581 8.9869C1.52231 8.19167 1.63346 7.3967 1.73205 6.60066C1.77192 6.27866 1.95052 6.09799 2.25611 6.00805C2.94812 5.80409 3.63713 5.59023 4.33024 5.39028C4.51922 5.33568 4.61562 5.23477 4.65659 5.04499C4.8614 4.09665 5.19212 3.19382 5.71126 2.36432C6.13264 1.69114 6.6223 1.07176 7.27062 0.591303C7.7772 0.215768 8.34742 0.00350945 8.99082 2.97944e-05C9.48593 -0.00264686 9.90458 0.175083 10.2563 0.509665C10.3462 0.59505 10.442 0.64671 10.5698 0.644836C11.2941 0.633594 11.8397 0.9655 12.2723 1.50672C12.5274 1.82578 12.7103 2.18284 12.8384 2.56801C12.9061 2.77171 12.925 2.77813 13.1301 2.71443C13.2816 2.66732 13.4346 2.62449 13.5869 2.58006C13.7284 2.53857 13.7579 2.55811 13.7587 2.70426C13.7606 3.08782 13.7606 3.47139 13.7606 3.85495C13.7606 6.67829 13.7606 9.50189 13.7606 12.3252C13.7604 12.3255 13.7595 12.3255 13.7595 12.3255ZM8.95149 0.719783C8.69315 0.721656 8.44737 0.774922 8.21196 0.88065C7.79031 1.07016 7.44239 1.35709 7.13789 1.69061C6.28366 2.6261 5.73693 3.72085 5.41988 4.93177C5.39093 5.04285 5.42069 5.05543 5.52174 5.02438C6.02887 4.8686 6.536 4.71175 7.04613 4.56587C7.22064 4.51608 7.31131 4.41865 7.34954 4.24708C7.44976 3.79767 7.59396 3.36137 7.79441 2.94489C8.18411 2.13466 8.67731 1.40608 9.48484 0.932577C9.55939 0.888947 9.53181 0.866196 9.47747 0.835147C9.31389 0.742534 9.13528 0.719783 8.95149 0.719783ZM10.4046 3.16089C10.4022 2.62529 10.2951 2.10843 10.1203 1.60335C10.0671 1.44971 10.0324 1.43499 9.90021 1.5201C9.56759 1.73424 9.27046 1.98691 9.02441 2.2958C8.59811 2.8314 8.34878 3.45051 8.13686 4.08782C8.12457 4.12449 8.09016 4.16946 8.1172 4.19944C8.15161 4.23771 8.20186 4.20452 8.24419 4.19194C8.84335 4.01234 9.44251 3.83327 10.0411 3.65259C10.4762 3.52144 10.4131 3.59505 10.4046 3.16089ZM10.8844 1.39698C10.8211 1.39912 10.8437 1.43873 10.8533 1.46978C11.0275 2.03616 11.1335 2.61325 11.136 3.2064C11.1362 3.28589 11.1668 3.30757 11.2463 3.28295C11.5325 3.19462 11.8195 3.1095 12.1071 3.02572C12.1898 3.00163 12.2149 2.96255 12.1824 2.87851C12.0664 2.57738 11.9361 2.28375 11.7449 2.0201C11.5453 1.74467 11.2982 1.52787 10.9642 1.42053C10.9382 1.41223 10.912 1.40501 10.8844 1.39698Z" fill="url(#paint0_linear_659_1082)"/>
<path d="M14.2585 12.4127C14.2585 9.26958 14.2585 6.12643 14.2585 2.98328C14.2585 2.96098 14.2569 2.93841 14.2587 2.9161C14.2625 2.87741 14.2399 2.82393 14.2808 2.80459C14.3316 2.7804 14.3568 2.83844 14.3864 2.86693C14.7286 3.19583 15.0715 3.5242 15.4083 3.85821C15.5335 3.98236 15.6714 4.04389 15.8499 4.04443C16.2887 4.04551 16.7274 4.05787 17.166 4.067C17.3759 4.0713 17.4275 4.11215 17.4584 4.31852C17.6275 5.45115 17.793 6.58432 17.9613 7.71721C18.1432 8.94282 18.3273 10.1679 18.5101 11.3935C18.6488 12.3227 18.7877 13.2516 18.9248 14.1811C19.1296 15.5709 19.3315 16.961 19.5368 18.3505C19.6435 19.0717 19.7548 19.7921 19.8634 20.5131C19.8873 20.6716 19.8539 20.7149 19.6758 20.759C18.8875 20.9542 17.063 20.3224 17.063 20.3224C17.063 20.3224 15.6607 21.7554 14.4799 22.0469C14.273 22.098 14.2596 22.0864 14.2593 21.8693C14.259 19.9394 14.259 18.0098 14.259 16.0799C14.259 14.8575 14.259 13.6351 14.259 12.4127C14.2593 12.4127 14.2588 12.4127 14.2585 12.4127Z" fill="#AC0000"/>
<path d="M9.85175 10.3806C9.83209 11.2171 9.61467 12.0112 9.31313 12.7864C8.90289 13.8409 8.31566 14.8014 7.68909 15.74C7.47878 16.0548 7.25945 16.3637 7.04859 16.6783C6.98932 16.7664 6.95354 16.7643 6.89564 16.6772C6.17047 15.5895 5.43138 14.51 4.88921 13.3161C4.57729 12.6287 4.33421 11.9193 4.26046 11.1664C4.12963 9.83531 4.56528 8.69347 5.56357 7.80124C6.75361 6.73784 8.24847 7.09284 9.11211 8.17376C9.62696 8.81827 9.86295 9.56009 9.85175 10.3806ZM9.31887 11.2537C9.31778 10.7949 9.24075 10.3515 9.04519 9.93181C8.6934 9.17732 8.04853 8.74037 7.32555 8.38941C7.26956 8.36218 7.20428 8.35006 7.14201 8.34089C6.62688 8.26514 6.23411 8.48699 5.89871 8.84442C5.80284 8.94658 5.71462 9.05548 5.6152 9.15387C5.01977 9.74393 4.71768 10.462 4.66552 11.2855C4.627 11.8931 4.78515 12.4697 4.98617 13.0352C5.2787 13.8582 5.72254 14.6054 6.19314 15.338C6.41465 15.6831 6.64436 16.023 6.87106 16.3645C6.95327 16.4885 6.97184 16.4882 7.05733 16.3637C7.11852 16.2745 7.17669 16.1834 7.2376 16.0941C7.85078 15.1965 8.45004 14.2911 8.85236 13.2762C9.10992 12.6255 9.31341 11.9616 9.31887 11.2537Z" fill="white"/>
<path d="M5.04946 16.7437C4.91493 17.0248 4.94664 17.1294 5.2077 17.3017C5.5625 17.5358 5.97189 17.635 6.38375 17.7261C7.21189 17.909 8.04527 17.9495 8.88361 17.7919C9.03799 17.7629 9.18437 17.7107 9.31339 17.6238C9.50885 17.4922 9.52098 17.3573 9.35695 17.1903C9.33627 17.1691 9.31532 17.148 9.28968 17.1224C9.58686 17.143 9.93422 17.4032 10.004 17.6018C10.0489 17.7303 9.98081 17.8307 9.87853 17.9096C9.70348 18.0445 9.49727 18.1184 9.27893 18.1585C8.7295 18.2601 8.17318 18.2658 7.61824 18.2337C6.80692 18.1867 6.0171 18.0361 5.26284 17.7386C5.06159 17.6593 4.87606 17.5572 4.7203 17.4116C4.49811 17.2038 4.52044 17.0016 4.78702 16.8452C4.86145 16.8014 4.93313 16.7419 5.04946 16.7437Z" fill="white"/>
<path d="M8.21514 16.9097C8.29377 16.9484 8.33461 16.9671 8.37378 16.9883C8.45407 17.0321 8.4813 17.0998 8.4763 17.1818C8.47102 17.2675 8.4074 17.3057 8.32877 17.33C8.0315 17.4218 7.72506 17.4557 7.41279 17.4397C6.95855 17.4167 6.5093 17.3677 6.08868 17.1932C5.99561 17.1547 5.90504 17.1122 5.83558 17.0414C5.7289 16.9324 5.78196 16.7812 5.93726 16.7471C5.97894 16.738 6.00144 16.7455 5.99033 16.789C5.95949 16.9102 6.04728 16.9673 6.1423 17.0164C6.54181 17.2227 6.98244 17.2642 7.42918 17.2731C7.63782 17.2771 7.84675 17.2604 8.04456 17.1957C8.17152 17.154 8.29071 17.0955 8.21514 16.9097Z" fill="white"/>
<path d="M8.18069 8.93652C8.48626 9.14071 8.68051 9.42521 8.81937 9.74537C9.08812 10.3642 9.07013 10.9985 8.91355 11.6389C8.694 12.5359 8.2833 13.3516 7.78376 14.1288C7.55128 14.4904 7.31121 14.8478 7.07508 15.2072C7.03123 15.2739 6.99159 15.3403 6.91653 15.2312C6.40519 14.4882 5.87361 13.7575 5.48287 12.9437C5.22902 12.4148 5.02663 11.8705 4.96872 11.2849C4.8976 10.5684 5.08678 9.91988 5.52026 9.33673C5.52503 9.33047 5.53572 9.32829 5.56411 9.31359C5.53515 9.39853 5.5107 9.46795 5.48793 9.53819C5.27625 10.1889 5.28609 10.8295 5.63495 11.4333C6.16203 12.3453 7.26708 12.4417 7.93809 11.6239C8.5869 10.833 8.6538 9.95881 8.23466 9.04243C8.21808 9.00649 8.19868 8.97164 8.18069 8.93652Z" fill="white"/>
<path d="M28.1982 19.9602C25.257 19.9602 23.4188 18.5549 22.4077 16.5948L24.6688 15.2449C25.4225 16.7427 26.7828 17.5748 28.3453 17.5748C29.724 17.5748 30.7166 17.0571 30.7166 16.0031C30.7166 14.9675 29.7423 14.5237 27.9592 14.0245C25.5327 13.3403 22.996 12.7116 22.996 9.8454C22.996 7.29358 24.9813 5.75879 27.9041 5.75879C30.6982 5.75879 32.3527 7.10867 33.3086 8.56949L31.2313 10.1598C30.5144 8.9948 29.2093 8.21815 27.8857 8.21815C26.6173 8.21815 25.9188 8.7729 25.9188 9.58652C25.9188 10.6775 26.9298 11.0658 28.7129 11.5651C31.1027 12.2123 33.6394 12.9705 33.6394 15.7997C33.6394 18.0001 31.985 19.9602 28.1982 19.9602Z" fill="#AC0000"/>
<path d="M35.595 19.7014V6.01767H38.5546V11.3987C39.1429 10.622 40.2274 9.642 41.937 9.642C43.6098 9.642 44.8047 10.4741 44.8047 12.5082V19.7014H41.8451V13.4512C41.8451 12.5637 41.5142 12.1014 40.7054 12.1014C39.8965 12.1014 39.2164 12.5082 38.5546 13.0814V19.7014H35.595Z" fill="#AC0000"/>
<path d="M51.4438 19.9048C49.0724 19.9048 46.4254 18.6104 46.4254 14.7826C46.4254 10.9179 49.0541 9.642 51.4438 9.642C53.8151 9.642 56.4438 10.9179 56.4438 14.7826C56.4438 18.6104 53.8151 19.9048 51.4438 19.9048ZM51.4438 17.8152C52.8409 17.8152 53.4843 16.5948 53.4843 14.8011C53.4843 13.1554 52.9144 11.824 51.4438 11.824C50.0283 11.824 49.3849 13.0259 49.3849 14.8011C49.3849 16.4469 49.9364 17.8152 51.4438 17.8152Z" fill="#AC0000"/>
<path d="M58.1603 23.3997V9.8454H61.1199V11.3432C61.7633 10.4556 62.6824 9.642 64.1346 9.642C66.3589 9.642 67.9031 11.3617 67.9031 14.7641C67.9031 18.1666 66.3405 19.8493 64.0979 19.8493C62.7743 19.8493 61.8552 19.3685 61.1199 18.5364V23.3997H58.1603ZM63.0868 17.6118C64.3185 17.6118 64.9435 16.5763 64.9435 14.7826C64.9435 13.1369 64.3736 12.1014 63.0501 12.1014C62.2964 12.1014 61.6162 12.5637 61.1199 13.0629V16.7057C61.7633 17.316 62.2964 17.6118 63.0868 17.6118Z" fill="#AC0000"/>
<path d="M69.6314 23.3997V9.8454H72.591V11.3432C73.2344 10.4556 74.1535 9.642 75.6058 9.642C77.8301 9.642 79.3742 11.3617 79.3742 14.7641C79.3742 18.1666 77.8117 19.8493 75.569 19.8493C74.2455 19.8493 73.3263 19.3685 72.591 18.5364V23.3997H69.6314ZM74.558 17.6118C75.7896 17.6118 76.4146 16.5763 76.4146 14.7826C76.4146 13.1369 75.8447 12.1014 74.5212 12.1014C73.7675 12.1014 73.0874 12.5637 72.591 13.0629V16.7057C73.2344 17.316 73.7675 17.6118 74.558 17.6118Z" fill="#AC0000"/>
<path d="M85.5695 19.9048C83.0144 19.9048 80.5695 18.5919 80.5695 14.7826C80.5695 10.9549 83.4739 9.642 85.496 9.642C87.5181 9.642 89.9997 10.659 89.9997 15.134V15.5778H83.5107C83.6578 17.205 84.5585 17.8337 85.7901 17.8337C86.9482 17.8337 88.0328 17.2605 88.6946 16.6503L89.8343 18.4254C88.6946 19.4055 87.2791 19.9048 85.5695 19.9048ZM83.5475 13.8211H87.3526C87.2056 12.4342 86.5806 11.7685 85.4776 11.7685C84.5585 11.7685 83.768 12.3787 83.5475 13.8211Z" fill="#AC0000"/>
<defs>
<linearGradient id="paint0_linear_659_1082" x1="0" y1="0" x2="16.4453" y2="19.8413" gradientUnits="userSpaceOnUse">
<stop stop-color="#F20000"/>
<stop offset="1" stop-color="#AB0000"/>
</linearGradient>
</defs>
</svg>
