<svg xmlns:xlink="http://www.w3.org/1999/xlink" xmlns="http://www.w3.org/2000/svg" width="35" height="32" viewBox="0 0 35 32">
  <path id="favorite" d="M17.5,32l-2.538-2.267q-4.419-3.967-7.306-6.845a48.284,48.284,0,0,1-4.594-5.166A16.4,16.4,0,0,1,.678,13.515,11.691,11.691,0,0,1,0,9.591,9.273,9.273,0,0,1,2.756,2.747,9.339,9.339,0,0,1,9.625,0a10.126,10.126,0,0,1,4.331.959,10.372,10.372,0,0,1,3.544,2.7,10.372,10.372,0,0,1,3.544-2.7A10.125,10.125,0,0,1,25.375,0,9.4,9.4,0,0,1,35,9.591a11.691,11.691,0,0,1-.678,3.924,16.4,16.4,0,0,1-2.384,4.207,48.284,48.284,0,0,1-4.594,5.166q-2.887,2.877-7.306,6.845Z" fill="#d22626"/>
</svg>